<svg width="58" height="32" viewBox="0 0 58 32" fill="none" xmlns="http://www.w3.org/2000/svg">
<rect x="0.5" y="0.5" width="57" height="31" rx="15.5" stroke="black" stroke-opacity="0.87"/>
<path d="M15.9716 11.2727V20H14.9148V12.3807H14.8636L12.733 13.7955V12.7216L14.9148 11.2727H15.9716ZM18.295 18.2102V17.3409L22.1302 11.2727H22.7609V12.6193H22.3348L19.437 17.2045V17.2727H24.6018V18.2102H18.295ZM22.4029 20V17.946V17.5412V11.2727H23.4086V20H22.4029Z" fill="black" fill-opacity="0.87"/>
<path d="M31.5 16.5062C31.5 17.5736 32.2489 18.5027 33.305 18.658C34.017 18.7627 34.7366 18.8439 35.4631 18.9009C35.7743 18.9253 36.0589 19.0883 36.232 19.348L38 22L39.768 19.348C39.9411 19.0883 40.2257 18.9253 40.5369 18.9009C41.2633 18.844 41.983 18.7627 42.695 18.6581C43.751 18.5028 44.5 17.5737 44.5 16.5063V12.4937C44.5 11.4263 43.751 10.4972 42.695 10.342C41.1627 10.1167 39.5951 10 38.0002 10C36.4052 10 34.8374 10.1167 33.305 10.342C32.2489 10.4973 31.5 11.4264 31.5 12.4938V16.5062Z" stroke="black" stroke-opacity="0.87" stroke-linecap="round" stroke-linejoin="round"/>
</svg>
