<svg width="96" height="32" viewBox="0 0 96 32" fill="none" xmlns="http://www.w3.org/2000/svg">
<rect x="0.5" y="0.5" width="95" height="31" rx="15.5" stroke="black" stroke-opacity="0.87"/>
<path d="M12.6989 18.2102V17.3409L16.5341 11.2727H17.1648V12.6193H16.7386L13.8409 17.2045V17.2727H19.0057V18.2102H12.6989ZM16.8068 20V17.946V17.5412V11.2727H17.8125V20H16.8068ZM20.9605 20.0682C20.7502 20.0682 20.5698 19.9929 20.4193 19.8423C20.2687 19.6918 20.1934 19.5114 20.1934 19.3011C20.1934 19.0909 20.2687 18.9105 20.4193 18.7599C20.5698 18.6094 20.7502 18.5341 20.9605 18.5341C21.1707 18.5341 21.3511 18.6094 21.5017 18.7599C21.6522 18.9105 21.7275 19.0909 21.7275 19.3011C21.7275 19.4403 21.692 19.5682 21.621 19.6847C21.5528 19.8011 21.4605 19.8949 21.344 19.9659C21.2304 20.0341 21.1025 20.0682 20.9605 20.0682ZM26.1262 20.1193C25.7682 20.1136 25.4103 20.0455 25.0523 19.9148C24.6944 19.7841 24.3677 19.5639 24.0722 19.2543C23.7768 18.9418 23.5396 18.5199 23.3606 17.9886C23.1816 17.4545 23.0921 16.7841 23.0921 15.9773C23.0921 15.2045 23.1646 14.5199 23.3094 13.9233C23.4543 13.3239 23.6646 12.8196 23.9401 12.4105C24.2157 11.9986 24.5481 11.6861 24.9373 11.473C25.3293 11.2599 25.7711 11.1534 26.2626 11.1534C26.7512 11.1534 27.1859 11.2514 27.5665 11.4474C27.9501 11.6406 28.2626 11.9105 28.504 12.2571C28.7455 12.6037 28.9018 13.0028 28.9728 13.4545H27.933C27.8364 13.0625 27.6489 12.7372 27.3705 12.4787C27.0921 12.2202 26.7228 12.0909 26.2626 12.0909C25.5864 12.0909 25.0538 12.3849 24.6646 12.973C24.2782 13.5611 24.0836 14.3864 24.0807 15.4489H24.1489C24.308 15.2074 24.4969 15.0014 24.7157 14.831C24.9373 14.6577 25.1816 14.5241 25.4486 14.4304C25.7157 14.3366 25.9984 14.2898 26.2967 14.2898C26.7967 14.2898 27.254 14.4148 27.6688 14.6648C28.0836 14.9119 28.416 15.2543 28.666 15.6918C28.916 16.1264 29.041 16.625 29.041 17.1875C29.041 17.7273 28.9202 18.2216 28.6788 18.6705C28.4373 19.1165 28.0978 19.4716 27.6603 19.7358C27.2256 19.9972 26.7143 20.125 26.1262 20.1193ZM26.1262 19.1818C26.4842 19.1818 26.8052 19.0923 27.0893 18.9134C27.3762 18.7344 27.6021 18.4943 27.7668 18.1932C27.9344 17.892 28.0182 17.5568 28.0182 17.1875C28.0182 16.8267 27.9373 16.4986 27.7753 16.2031C27.6163 15.9048 27.3961 15.6676 27.1148 15.4915C26.8364 15.3153 26.5182 15.2273 26.1603 15.2273C25.8904 15.2273 25.639 15.2812 25.406 15.3892C25.1731 15.4943 24.9685 15.6392 24.7924 15.8239C24.6191 16.0085 24.4827 16.2202 24.3833 16.4588C24.2839 16.6946 24.2342 16.9432 24.2342 17.2045C24.2342 17.5511 24.3151 17.875 24.4771 18.1761C24.6418 18.4773 24.8663 18.7202 25.1503 18.9048C25.4373 19.0895 25.7626 19.1818 26.1262 19.1818Z" fill="black" fill-opacity="0.87"/>
<path d="M41.6538 10.3325C41.7819 10.0245 42.2182 10.0245 42.3463 10.3325L43.7636 13.7401C43.8176 13.87 43.9397 13.9587 44.0799 13.9699L47.7587 14.2648C48.0912 14.2915 48.2261 14.7064 47.9727 14.9234L45.1699 17.3244C45.0631 17.4159 45.0164 17.5594 45.049 17.6962L45.9054 21.2861C45.9828 21.6106 45.6298 21.867 45.3451 21.6932L42.1955 19.7694C42.0755 19.6961 41.9246 19.6961 41.8046 19.7694L38.655 21.6932C38.3704 21.867 38.0174 21.6106 38.0948 21.2861L38.9511 17.6962C38.9837 17.5594 38.9371 17.4159 38.8303 17.3244L36.0274 14.9234C35.7741 14.7064 35.9089 14.2915 36.2414 14.2648L39.9202 13.9699C40.0604 13.9587 40.1825 13.87 40.2365 13.7401L41.6538 10.3325Z" stroke="black" stroke-opacity="0.87" stroke-linecap="round" stroke-linejoin="round"/>
<path d="M55.2784 15.6364C55.2784 14.5625 55.4176 13.5753 55.696 12.6747C55.9773 11.7713 56.3778 10.9403 56.8977 10.1818H57.7841C57.5795 10.4631 57.3878 10.8097 57.2088 11.2216C57.0327 11.6307 56.8778 12.081 56.7443 12.5724C56.6108 13.0611 56.5057 13.5668 56.429 14.0895C56.3551 14.6122 56.3182 15.1278 56.3182 15.6364C56.3182 16.3125 56.3835 16.9986 56.5142 17.6946C56.6449 18.3906 56.821 19.0369 57.0426 19.6335C57.2642 20.2301 57.5114 20.7159 57.7841 21.0909H56.8977C56.3778 20.3324 55.9773 19.5028 55.696 18.6023C55.4176 17.6989 55.2784 16.7102 55.2784 15.6364ZM62.3372 11.2727V20H61.2804V12.3807H61.2293L59.0986 13.7955V12.7216L61.2804 11.2727H62.3372ZM67.7629 20.1193C67.405 20.1136 67.047 20.0455 66.6891 19.9148C66.3311 19.7841 66.0044 19.5639 65.7089 19.2543C65.4135 18.9418 65.1763 18.5199 64.9973 17.9886C64.8183 17.4545 64.7288 16.7841 64.7288 15.9773C64.7288 15.2045 64.8013 14.5199 64.9462 13.9233C65.091 13.3239 65.3013 12.8196 65.5768 12.4105C65.8524 11.9986 66.1848 11.6861 66.574 11.473C66.966 11.2599 67.4078 11.1534 67.8993 11.1534C68.3879 11.1534 68.8226 11.2514 69.2033 11.4474C69.5868 11.6406 69.8993 11.9105 70.1408 12.2571C70.3822 12.6037 70.5385 13.0028 70.6095 13.4545H69.5697C69.4731 13.0625 69.2856 12.7372 69.0072 12.4787C68.7288 12.2202 68.3595 12.0909 67.8993 12.0909C67.2231 12.0909 66.6905 12.3849 66.3013 12.973C65.9149 13.5611 65.7203 14.3864 65.7175 15.4489H65.7856C65.9447 15.2074 66.1337 15.0014 66.3524 14.831C66.574 14.6577 66.8183 14.5241 67.0854 14.4304C67.3524 14.3366 67.6351 14.2898 67.9334 14.2898C68.4334 14.2898 68.8908 14.4148 69.3055 14.6648C69.7203 14.9119 70.0527 15.2543 70.3027 15.6918C70.5527 16.1264 70.6777 16.625 70.6777 17.1875C70.6777 17.7273 70.557 18.2216 70.3155 18.6705C70.074 19.1165 69.7345 19.4716 69.297 19.7358C68.8623 19.9972 68.351 20.125 67.7629 20.1193ZM67.7629 19.1818C68.1209 19.1818 68.4419 19.0923 68.726 18.9134C69.0129 18.7344 69.2388 18.4943 69.4035 18.1932C69.5712 17.892 69.655 17.5568 69.655 17.1875C69.655 16.8267 69.574 16.4986 69.4121 16.2031C69.253 15.9048 69.0328 15.6676 68.7516 15.4915C68.4731 15.3153 68.155 15.2273 67.797 15.2273C67.5271 15.2273 67.2757 15.2812 67.0427 15.3892C66.8098 15.4943 66.6052 15.6392 66.4291 15.8239C66.2558 16.0085 66.1195 16.2202 66.02 16.4588C65.9206 16.6946 65.8709 16.9432 65.8709 17.2045C65.8709 17.5511 65.9518 17.875 66.1138 18.1761C66.2785 18.4773 66.503 18.7202 66.7871 18.9048C67.074 19.0895 67.3993 19.1818 67.7629 19.1818ZM75.0987 20.1193C74.5987 20.1193 74.1485 20.0199 73.7479 19.821C73.3473 19.6222 73.0263 19.3494 72.7848 19.0028C72.5433 18.6562 72.4112 18.2614 72.3885 17.8182H73.4112C73.451 18.2131 73.63 18.5398 73.9482 18.7983C74.2692 19.054 74.6527 19.1818 75.0987 19.1818C75.4567 19.1818 75.7749 19.098 76.0533 18.9304C76.3345 18.7628 76.5547 18.5327 76.7138 18.2401C76.8757 17.9446 76.9567 17.6108 76.9567 17.2386C76.9567 16.858 76.8729 16.5185 76.7053 16.2202C76.5405 15.919 76.3132 15.6818 76.0235 15.5085C75.7337 15.3352 75.4027 15.2472 75.0306 15.2443C74.7635 15.2415 74.4894 15.2827 74.2081 15.3679C73.9269 15.4503 73.6953 15.5568 73.5135 15.6875L72.5249 15.5682L73.0533 11.2727H77.5874V12.2102H73.9397L73.6328 14.7841H73.684C73.8629 14.642 74.0874 14.5241 74.3573 14.4304C74.6272 14.3366 74.9084 14.2898 75.201 14.2898C75.7351 14.2898 76.211 14.4176 76.6286 14.6733C77.049 14.9261 77.3786 15.2727 77.6172 15.7131C77.8587 16.1534 77.9794 16.6562 77.9794 17.2216C77.9794 17.7784 77.8544 18.2756 77.6044 18.7131C77.3573 19.1477 77.0164 19.4915 76.5817 19.7443C76.147 19.9943 75.6527 20.1193 75.0987 20.1193ZM81.855 15.6364C81.855 16.7102 81.7144 17.6989 81.4332 18.6023C81.1547 19.5028 80.7556 20.3324 80.2357 21.0909H79.3493C79.5539 20.8097 79.7442 20.4631 79.9204 20.0511C80.0993 19.642 80.2556 19.1932 80.3891 18.7045C80.5226 18.2131 80.6263 17.706 80.7002 17.1832C80.7769 16.6577 80.8153 16.142 80.8153 15.6364C80.8153 14.9602 80.7499 14.2741 80.6192 13.5781C80.4885 12.8821 80.3124 12.2358 80.0908 11.6392C79.8692 11.0426 79.6221 10.5568 79.3493 10.1818H80.2357C80.7556 10.9403 81.1547 11.7713 81.4332 12.6747C81.7144 13.5753 81.855 14.5625 81.855 15.6364Z" fill="black" fill-opacity="0.87"/>
</svg>
